<mxfile host="65bd71144e">
    <diagram id="OOGeuDpNiOZ6lB6-GOxb" name="Concept_1">
        <mxGraphModel dx="1329" dy="438" grid="0" gridSize="10" guides="1" tooltips="1" connect="1" arrows="1" fold="1" page="0" pageScale="1" pageWidth="850" pageHeight="1100" background="light-dark(#FFFFFF,#FFFFFF)" math="0" shadow="0" adaptiveColors="auto">
            <root>
                <mxCell id="0"/>
                <mxCell id="1" parent="0"/>
                <mxCell id="32" value="&gt; The language of the datatypes are in SQL.&#xa;&gt; Both Volunteers and Admins can accept an Event/Task.&#xa;&gt; However, only Admins can create those Events/Tasks." style="text;align=left;verticalAlign=middle;resizable=0;points=[];autosize=1;strokeColor=none;fillColor=none;fontColor=light-dark(#000000,#000000);" parent="1" vertex="1">
                    <mxGeometry x="-320" y="160" width="330" height="60" as="geometry"/>
                </mxCell>
                <mxCell id="60" value="USER" style="whiteSpace=wrap;fillColor=none;fontFamily=Calibri;fontColor=light-dark(#000000,#0038FF);fontSize=24;fontStyle=1;align=center;labelBorderColor=none;" parent="1" vertex="1">
                    <mxGeometry x="120" y="120" width="80" height="40" as="geometry"/>
                </mxCell>
                <mxCell id="63" value="VOLUNTEER_HIST" style="whiteSpace=wrap;fillColor=none;fontFamily=Calibri;fontColor=light-dark(#000000,#9300FF);fontSize=24;fontStyle=1;align=center;" parent="1" vertex="1">
                    <mxGeometry x="360" y="200" width="200" height="40" as="geometry"/>
                </mxCell>
                <mxCell id="64" value="EVENT" style="whiteSpace=wrap;fillColor=none;fontFamily=Calibri;fontColor=light-dark(#000000,#FF7100);fontSize=24;fontStyle=1;align=center;" parent="1" vertex="1">
                    <mxGeometry x="360" y="40" width="80" height="40" as="geometry"/>
                </mxCell>
                <mxCell id="65" value="TASK" style="whiteSpace=wrap;fillColor=none;fontFamily=Calibri;fontColor=light-dark(#000000,#FFC600);fontSize=24;fontStyle=1;align=center;" parent="1" vertex="1">
                    <mxGeometry x="510" y="40" width="80" height="40" as="geometry"/>
                </mxCell>
                <mxCell id="72" value="generates" style="edgeStyle=orthogonalEdgeStyle;exitX=1;exitY=0.5;exitDx=0;exitDy=0;entryX=0;entryY=0.5;entryDx=0;entryDy=0;strokeColor=light-dark(#000000,#0038FF);strokeWidth=5;fontFamily=Calibri;fontColor=light-dark(#000000,#0038FF);flowAnimation=0;labelBackgroundColor=none;fontSize=15;jumpStyle=arc;jumpSize=12;" parent="1" source="60" target="63" edge="1">
                    <mxGeometry x="0.5833" y="-10" relative="1" as="geometry">
                        <mxPoint x="210" y="160" as="sourcePoint"/>
                        <mxPoint x="330" y="280" as="targetPoint"/>
                        <mxPoint as="offset"/>
                        <Array as="points">
                            <mxPoint x="280" y="140"/>
                            <mxPoint x="280" y="220"/>
                        </Array>
                    </mxGeometry>
                </mxCell>
                <mxCell id="78" value="creates" style="edgeStyle=orthogonalEdgeStyle;exitX=1;exitY=0.5;exitDx=0;exitDy=0;entryX=0;entryY=0.5;entryDx=0;entryDy=0;strokeColor=light-dark(#000000,#0038FF);strokeWidth=5;fontFamily=Calibri;fontColor=light-dark(#000000,#0038FF);labelBackgroundColor=none;jumpStyle=arc;jumpSize=12;fontSize=15;" parent="1" source="60" target="64" edge="1">
                    <mxGeometry x="0.5833" y="-10" relative="1" as="geometry">
                        <mxPoint x="500" y="70" as="sourcePoint"/>
                        <mxPoint x="330" y="80" as="targetPoint"/>
                        <Array as="points">
                            <mxPoint x="280" y="140"/>
                            <mxPoint x="280" y="60"/>
                        </Array>
                        <mxPoint as="offset"/>
                    </mxGeometry>
                </mxCell>
                <mxCell id="83" value="has" style="edgeStyle=elbowEdgeStyle;exitX=1;exitY=0.5;exitDx=0;exitDy=0;entryX=0;entryY=0.5;entryDx=0;entryDy=0;strokeColor=light-dark(#000000,#FF7100);strokeWidth=5;fontFamily=Calibri;fontColor=light-dark(#000000,#FF7100);labelBackgroundColor=none;fontSize=15;" parent="1" source="64" target="65" edge="1">
                    <mxGeometry x="-0.1429" y="-10" relative="1" as="geometry">
                        <mxPoint x="440" y="240" as="sourcePoint"/>
                        <mxPoint x="720" y="190" as="targetPoint"/>
                        <Array as="points"/>
                        <mxPoint as="offset"/>
                    </mxGeometry>
                </mxCell>
                <mxCell id="135" value="accepts" style="edgeStyle=orthogonalEdgeStyle;exitX=1;exitY=0.5;exitDx=0;exitDy=0;entryX=0;entryY=0.5;entryDx=0;entryDy=0;strokeColor=light-dark(#000000,#0038FF);strokeWidth=5;fontFamily=Calibri;fontColor=light-dark(#000000,#0038FF);flowAnimation=0;labelBackgroundColor=none;fontSize=15;jumpStyle=arc;jumpSize=12;" parent="1" source="60" target="142" edge="1">
                    <mxGeometry x="0.375" y="-10" relative="1" as="geometry">
                        <mxPoint x="250" y="160" as="sourcePoint"/>
                        <mxPoint x="560" y="190" as="targetPoint"/>
                        <Array as="points">
                            <mxPoint x="300" y="140"/>
                            <mxPoint x="300" y="140"/>
                        </Array>
                        <mxPoint as="offset"/>
                    </mxGeometry>
                </mxCell>
                <mxCell id="141" value="&gt; Can either be a:&#xa;    - Volunteer:&#xa;        - Can accept Tasks&#xa;    - Admin:&#xa;        - Can accept Tasks.&#xa;        - Can create Events/Tasks." style="whiteSpace=wrap;fontColor=light-dark(#000000,#0038FF);labelBackgroundColor=none;fillColor=light-dark(#FFFFFF,#78A3FF);rounded=1;fontFamily=Calibri;align=left;verticalAlign=top;fontStyle=0" vertex="1" parent="1">
                    <mxGeometry x="80" y="160" width="160" height="100" as="geometry"/>
                </mxCell>
                <mxCell id="142" value="TASK_ASSIGNMENT" style="whiteSpace=wrap;fillColor=none;fontFamily=Calibri;fontColor=light-dark(#3B6E00,#5DA800);fontSize=24;fontStyle=1;align=center;" vertex="1" parent="1">
                    <mxGeometry x="360" y="120" width="200" height="40" as="geometry"/>
                </mxCell>
                <mxCell id="143" value="If admin..." style="text;align=center;verticalAlign=middle;resizable=0;points=[];autosize=1;strokeColor=none;fillColor=none;fontColor=light-dark(#000000,#0038FF);fontStyle=2;fontSize=10;" vertex="1" parent="1">
                    <mxGeometry x="280" y="30" width="62" height="24" as="geometry"/>
                </mxCell>
                <mxCell id="144" value="ROLE" style="whiteSpace=wrap;fillColor=none;fontFamily=Calibri;fontColor=light-dark(#000000,#D89EFF);fontSize=24;fontStyle=1;align=center;labelBorderColor=none;" vertex="1" parent="1">
                    <mxGeometry x="-320" y="120" width="80" height="40" as="geometry"/>
                </mxCell>
                <mxCell id="145" value="USER_ROLE" style="whiteSpace=wrap;fillColor=none;fontFamily=Calibri;fontColor=light-dark(#000000,#FF00FF);fontSize=24;fontStyle=1;align=center;labelBorderColor=none;" vertex="1" parent="1">
                    <mxGeometry x="-160" y="120" width="160" height="40" as="geometry"/>
                </mxCell>
                <mxCell id="146" value="determines" style="edgeStyle=orthogonalEdgeStyle;exitX=1;exitY=0.5;exitDx=0;exitDy=0;entryX=0;entryY=0.5;entryDx=0;entryDy=0;strokeColor=light-dark(#000000,#D89EFF);strokeWidth=5;fontFamily=Calibri;fontColor=light-dark(#000000,#D89EFF);flowAnimation=0;labelBackgroundColor=none;fontSize=15;jumpStyle=arc;jumpSize=12;" edge="1" parent="1" source="144" target="145">
                    <mxGeometry x="-0.1111" y="-10" relative="1" as="geometry">
                        <mxPoint x="-210" y="70" as="sourcePoint"/>
                        <mxPoint x="-90" y="70" as="targetPoint"/>
                        <Array as="points">
                            <mxPoint x="-200" y="140"/>
                            <mxPoint x="-200" y="140"/>
                        </Array>
                        <mxPoint as="offset"/>
                    </mxGeometry>
                </mxCell>
                <mxCell id="147" value="determines" style="edgeStyle=orthogonalEdgeStyle;exitX=1;exitY=0.5;exitDx=0;exitDy=0;strokeColor=light-dark(#000000,#FF00FF);strokeWidth=5;fontFamily=Calibri;fontColor=light-dark(#000000,#FF00FF);flowAnimation=0;labelBackgroundColor=none;fontSize=15;jumpStyle=arc;jumpSize=12;entryX=0;entryY=0.5;entryDx=0;entryDy=0;" edge="1" parent="1" source="145" target="60">
                    <mxGeometry x="-0.1111" y="-10" relative="1" as="geometry">
                        <mxPoint x="-40" y="139.58" as="sourcePoint"/>
                        <mxPoint x="40" y="140" as="targetPoint"/>
                        <Array as="points"/>
                        <mxPoint as="offset"/>
                    </mxGeometry>
                </mxCell>
            </root>
        </mxGraphModel>
    </diagram>
</mxfile>